<svg width="30" height="30" fill="none" xmlns="http://www.w3.org/2000/svg"><path fill-rule="evenodd" clip-rule="evenodd" d="M9.025 7.5c-1.08 0-2.093.418-2.85 1.176a4.052 4.052 0 0 0 0 5.716L15 23.233l8.825-8.84a4.05 4.05 0 0 0 0-5.716c-1.515-1.519-4.185-1.516-5.7 0l-2.24 2.244c-.47.471-1.3.471-1.77 0l-2.24-2.245A4 4 0 0 0 9.025 7.5ZM15 26.25c-.332 0-.65-.131-.884-.367l-9.71-9.726a6.556 6.556 0 0 1 0-9.248A6.487 6.487 0 0 1 9.025 5c1.748 0 3.39.679 4.618 1.909L15 8.268l1.356-1.358A6.484 6.484 0 0 1 20.976 5c1.747 0 3.389.679 4.617 1.909a6.555 6.555 0 0 1 .002 9.248l-9.71 9.727a1.25 1.25 0 0 1-.885.366Z" fill="#231F20"/><mask id="a" style="mask-type:alpha" maskUnits="userSpaceOnUse" x="2" y="5" width="26" height="22"><path fill-rule="evenodd" clip-rule="evenodd" d="M9.025 7.5c-1.08 0-2.093.418-2.85 1.176a4.052 4.052 0 0 0 0 5.716L15 23.233l8.825-8.84a4.05 4.05 0 0 0 0-5.716c-1.515-1.519-4.185-1.516-5.7 0l-2.24 2.244c-.47.471-1.3.471-1.77 0l-2.24-2.245A4 4 0 0 0 9.025 7.5ZM15 26.25c-.332 0-.65-.131-.884-.367l-9.71-9.726a6.556 6.556 0 0 1 0-9.248A6.487 6.487 0 0 1 9.025 5c1.748 0 3.39.679 4.618 1.909L15 8.268l1.356-1.358A6.484 6.484 0 0 1 20.976 5c1.747 0 3.389.679 4.617 1.909a6.555 6.555 0 0 1 .002 9.248l-9.71 9.727a1.25 1.25 0 0 1-.885.366Z" fill="#fff"/></mask><g mask="url(#a)"><path fill="#000" d="M0 0h30v30H0z"/></g></svg>