<svg width="42" height="36" fill="none" xmlns="http://www.w3.org/2000/svg"><path fill-rule="evenodd" clip-rule="evenodd" d="M11.041 4.5c-1.8 0-3.487.696-4.75 1.96-2.62 2.625-2.62 6.898.002 9.528L21 30.718l14.709-14.73c2.623-2.63 2.623-6.903 0-9.528-2.525-2.53-6.975-2.527-9.5 0l-3.734 3.74c-.783.785-2.166.785-2.95 0l-3.733-3.742a6.667 6.667 0 0 0-4.75-1.958Zm9.958 31.25a2.072 2.072 0 0 1-1.473-.612L3.343 18.929c-4.242-4.25-4.242-11.164 0-15.414A10.812 10.812 0 0 1 11.041.333c2.915 0 5.65 1.132 7.698 3.182l2.26 2.264 2.26-2.262a10.806 10.806 0 0 1 7.7-3.184c2.913 0 5.649 1.132 7.697 3.182 4.243 4.25 4.243 11.164.002 15.414L22.474 35.14c-.391.392-.92.611-1.475.611Z" fill="#000"/></svg>